<svg width="289" height="279" viewBox="0 0 289 279" fill="none" xmlns="http://www.w3.org/2000/svg">
<rect x="0.5" y="0.5" width="83" height="43" rx="3.5" fill="white"/>
<rect x="0.5" y="0.5" width="83" height="43" rx="3.5" stroke="#D1D5DC"/>
<path d="M27.3125 15.375V21.0312H29.5625V22.0625H27.3125V29.2656H26.0938V15.375H27.3125ZM23.7188 16.875C23.7188 20.8125 21.875 24.3906 17.3438 26.625L16.6562 25.6562C20.25 23.8672 22.2031 21.1953 22.4844 17.9062H17.2969V16.875H23.7188ZM37.3988 16.3281C37.3988 16.8672 37.3363 17.3828 37.2269 17.875H40.3519V15.3906H41.5863V23.6719H40.3519V21.8281H36.6644V20.8125H40.3519V18.8906H36.8988C35.9534 21.0781 33.7816 22.6562 30.7738 23.4844L30.2894 22.5C33.68 21.5625 35.8284 19.6953 36.0863 17.3281H30.9925V16.3281H37.3988ZM41.5863 24.2812V29.25H40.3519V25.2656H32.2425V24.2812H41.5863Z" fill="#101828"/>
<mask id="mask0_40001129_53530" style="mask-type:alpha" maskUnits="userSpaceOnUse" x="48" y="10" width="24" height="24">
<rect x="72" y="10" width="24" height="24" transform="rotate(90 72 10)" fill="#D9D9D9"/>
</mask>
<g mask="url(#mask0_40001129_53530)">
<path d="M60 22.6L64.6 18L66 19.4L60 25.4L54 19.4L55.4 18L60 22.6Z" fill="#364153"/>
</g>
<rect x="96.5" y="0.5" width="96" height="43" rx="3.5" fill="white"/>
<rect x="96.5" y="0.5" width="96" height="43" rx="3.5" stroke="#D1D5DC"/>
<path d="M117.219 19.1094C117.219 21.5625 118.844 24.0781 120.812 25.0469L120.062 26.0312C118.531 25.2266 117.25 23.5859 116.641 21.6562C116.016 23.7109 114.703 25.4609 113.141 26.2969L112.359 25.3125C114.391 24.3125 116 21.6406 116.016 19.1094V16.5781H117.219V19.1094ZM123.312 15.375V21.0156H125.641V22.0781H123.312V29.2656H122.094V15.375H123.312ZM137.524 15.375V29.2969H136.289V15.375H137.524ZM130.133 16.4531C132.196 16.4688 133.68 18.3438 133.68 21.2969C133.68 24.25 132.196 26.125 130.133 26.125C128.055 26.125 126.586 24.25 126.586 21.2969C126.586 18.3438 128.055 16.4688 130.133 16.4531ZM130.133 17.5469C128.743 17.5625 127.774 19.0312 127.774 21.2969C127.774 23.5625 128.743 25.0312 130.133 25.0312C131.524 25.0312 132.493 23.5625 132.493 21.2969C132.493 19.0312 131.524 17.5625 130.133 17.5469ZM152.298 26.3906V27.4219H139.579V26.3906H152.298ZM146.548 18.4375C146.548 20.6562 149.298 22.5469 151.688 22.9375L151.188 23.9062C149.063 23.4922 146.821 22.1328 145.938 20.2188C145.04 22.1484 142.805 23.5469 140.719 23.9688L140.204 22.9844C142.548 22.5781 145.282 20.6562 145.282 18.4375V17.7969H140.626V16.7812H151.204V17.7969H146.548V18.4375Z" fill="#101828"/>
<mask id="mask1_40001129_53530" style="mask-type:alpha" maskUnits="userSpaceOnUse" x="157" y="10" width="24" height="24">
<rect x="181" y="10" width="24" height="24" transform="rotate(90 181 10)" fill="#D9D9D9"/>
</mask>
<g mask="url(#mask1_40001129_53530)">
<path d="M169 22.6L173.6 18L175 19.4L169 25.4L163 19.4L164.4 18L169 22.6Z" fill="#364153"/>
</g>
<rect x="1.5" y="56.5" width="83" height="43" rx="3.5" fill="white"/>
<rect x="1.5" y="56.5" width="83" height="43" rx="3.5" stroke="#8E51FF"/>
<path d="M23.8906 71.6094C26.9375 71.6094 28.7969 72.5156 28.7969 74.1406C28.7969 75.6484 27.1719 76.5625 24.4688 76.6562V77.9531H30.2188V78.9688H17.5625V77.9531H23.2812V76.6562C20.5938 76.5547 18.9688 75.6406 18.9688 74.1406C18.9688 72.5156 20.8438 71.6094 23.8906 71.6094ZM23.8906 72.5469C21.625 72.5312 20.2188 73.1406 20.2344 74.1406C20.2188 75.125 21.625 75.7188 23.8906 75.7188C26.1406 75.7188 27.5469 75.125 27.5469 74.1406C27.5469 73.1406 26.1406 72.5312 23.8906 72.5469ZM20.3906 79.7969V81.3438H27.3594V79.7969H28.6094V85.0781H19.1719V79.7969H20.3906ZM20.3906 84.0781H27.3594V82.3281H20.3906V84.0781ZM35.8206 73.9531C35.8206 75.9844 37.2113 77.9062 39.2269 78.7031L38.5394 79.6562C37.0081 79.0234 35.8206 77.7578 35.2425 76.1719C34.6409 77.8828 33.3909 79.2422 31.7738 79.9062L31.1019 78.9219C33.1644 78.125 34.6019 76.125 34.6175 73.9531V72.1719H35.8206V73.9531ZM42.5863 71.3906V81.7656H41.3519V77.3125H38.4925V76.3125H41.3519V74.4688H38.4925V73.4531H41.3519V71.3906H42.5863ZM42.8988 83.9375V84.9688H33.6019V80.6875H34.8363V83.9375H42.8988Z" fill="#7008E7"/>
<mask id="mask2_40001129_53530" style="mask-type:alpha" maskUnits="userSpaceOnUse" x="49" y="66" width="24" height="24">
<rect x="49" y="90" width="24" height="24" transform="rotate(-90 49 90)" fill="#D9D9D9"/>
</mask>
<g mask="url(#mask2_40001129_53530)">
<path d="M61 77.4L56.4 82L55 80.6L61 74.6L67 80.6L65.6 82L61 77.4Z" fill="#7008E7"/>
</g>
<rect x="97.5" y="56.5" width="110" height="43" rx="3.5" fill="white"/>
<rect x="97.5" y="56.5" width="110" height="43" rx="3.5" stroke="#D1D5DC"/>
<path d="M125.078 71.3906V81.6562H123.844V76.7031H120.766V75.6719H123.844V71.3906H125.078ZM120.828 72.4531C120.812 76.0156 118.266 78.7344 114.312 80.0312L113.781 79.0469C116.984 77.9922 119.211 76 119.484 73.4844H114.484V72.4531H120.828ZM125.438 83.9375V84.9688H116.234V80.6094H117.484V83.9375H125.438ZM139.727 77.25V78.25H133.993V79.625H138.102V82.7344H129.852V84.1406H138.524V85.1094H128.633V81.8125H136.899V80.5781H128.602V79.625H132.774V78.25H127.071V77.25H139.727ZM138.086 71.8438V76.0781H128.711V71.8438H138.086ZM129.93 72.8281V75.0938H136.868V72.8281H129.93ZM153.282 79.2969V80.3125H149.923V85.2656H148.688V80.3125H145.126V85.2656H143.86V80.3125H140.563V79.2969H153.282ZM146.891 71.9375C149.813 71.9375 151.782 73.1094 151.782 74.9688C151.782 76.8125 149.813 77.9844 146.891 77.9688C143.969 77.9844 142.001 76.8125 142.001 74.9688C142.001 73.1094 143.969 71.9375 146.891 71.9375ZM146.891 72.9375C144.719 72.9375 143.251 73.7344 143.266 74.9688C143.251 76.2031 144.719 76.9844 146.891 76.9844C149.048 76.9844 150.532 76.2031 150.532 74.9688C150.532 73.7344 149.048 72.9375 146.891 72.9375ZM161.962 72.9375V73.9375H154.103V72.9375H157.478V71.2656H158.696V72.9375H161.962ZM158.071 74.6562C159.931 74.6562 161.243 75.6719 161.243 77.2188C161.243 78.7812 159.931 79.7969 158.071 79.7969C156.196 79.7969 154.915 78.7812 154.931 77.2188C154.915 75.6719 156.196 74.6562 158.071 74.6562ZM158.071 75.5781C156.868 75.5938 156.071 76.25 156.071 77.2188C156.071 78.2031 156.868 78.8438 158.071 78.8438C159.274 78.8438 160.087 78.2031 160.103 77.2188C160.087 76.25 159.274 75.5938 158.071 75.5781ZM165.603 71.375V80.3594H164.368V78.4375H161.946V77.4219H164.368V75.7344H161.962V74.7188H164.368V71.375H165.603ZM161.024 80.5C163.915 80.5 165.681 81.3594 165.681 82.875C165.681 84.3594 163.915 85.2344 161.024 85.2344C158.103 85.2344 156.353 84.3594 156.353 82.875C156.353 81.3594 158.103 80.5 161.024 80.5ZM161.024 81.4531C158.915 81.4531 157.618 81.9688 157.618 82.875C157.618 83.75 158.915 84.2812 161.024 84.2812C163.103 84.2812 164.384 83.75 164.384 82.875C164.384 81.9688 163.103 81.4531 161.024 81.4531Z" fill="#101828"/>
<mask id="mask3_40001129_53530" style="mask-type:alpha" maskUnits="userSpaceOnUse" x="172" y="66" width="24" height="24">
<rect x="196" y="66" width="24" height="24" transform="rotate(90 196 66)" fill="#D9D9D9"/>
</mask>
<g mask="url(#mask3_40001129_53530)">
<path d="M184 78.6L188.6 74L190 75.4L184 81.4L178 75.4L179.4 74L184 78.6Z" fill="#364153"/>
</g>
<rect x="205.5" y="0.5" width="83" height="43" rx="3.5" fill="white"/>
<rect x="205.5" y="0.5" width="83" height="43" rx="3.5" stroke="#D1D5DC"/>
<path d="M225.469 16.2188C227.578 16.2031 229.109 17.5625 229.125 19.4844C229.109 21.4375 227.578 22.7812 225.469 22.7812C223.359 22.7812 221.812 21.4375 221.828 19.4844C221.812 17.5625 223.359 16.2031 225.469 16.2188ZM225.469 17.2656C224.062 17.2656 223.016 18.1719 223.031 19.4844C223.016 20.8125 224.062 21.7344 225.469 21.7188C226.891 21.7344 227.922 20.8125 227.922 19.4844C227.922 18.1719 226.891 17.2656 225.469 17.2656ZM232.422 15.375V18.9688H234.516V20H232.422V23.5625H231.203V15.375H232.422ZM232.422 24.2812V29.2969H231.203V25.2812H223.328V24.2812H232.422ZM246.555 15.375V29.2656H245.321V15.375H246.555ZM242.446 16.8906C242.43 20.8906 240.571 24.4219 235.914 26.6562L235.243 25.6562C239 23.875 240.914 21.2109 241.196 17.8906H235.883V16.8906H242.446Z" fill="#101828"/>
<mask id="mask4_40001129_53530" style="mask-type:alpha" maskUnits="userSpaceOnUse" x="253" y="10" width="24" height="24">
<rect x="277" y="10" width="24" height="24" transform="rotate(90 277 10)" fill="#D9D9D9"/>
</mask>
<g mask="url(#mask4_40001129_53530)">
<path d="M265 22.6L269.6 18L271 19.4L265 25.4L259 19.4L260.4 18L265 22.6Z" fill="#364153"/>
</g>
<rect x="1.25" y="108.75" width="187" height="336.5" rx="1.75" fill="white"/>
<rect x="1.25" y="108.75" width="187" height="336.5" rx="1.75" stroke="#D1D5DC" stroke-width="0.5"/>
<path d="M15.7373 119.928C17.8643 119.928 19.1748 120.562 19.1748 121.711C19.1748 122.753 18.063 123.381 16.2207 123.473V124.278H20.1309V125.105H11.3545V124.278H15.2324V123.473C13.4116 123.376 12.2998 122.748 12.2998 121.711C12.2998 120.562 13.6211 119.928 15.7373 119.928ZM15.7373 120.701C14.2441 120.69 13.3418 121.066 13.3525 121.711C13.3418 122.334 14.2441 122.699 15.7373 122.699C17.2305 122.699 18.1221 122.334 18.1221 121.711C18.1221 121.066 17.2305 120.69 15.7373 120.701ZM13.4492 125.632V126.599H18.0039V125.632H19.0244V129.295H12.4395V125.632H13.4492ZM13.4492 128.468H18.0039V127.394H13.4492V128.468ZM24.0359 121.528C24.0359 122.914 24.906 124.235 26.3347 124.794L25.7761 125.589C24.7234 125.165 23.9499 124.321 23.5417 123.269C23.1281 124.396 22.3064 125.288 21.1892 125.739L20.6413 124.923C22.1237 124.375 23.0154 123 23.0261 121.528V120.336H24.0359V121.528ZM28.6657 119.799V126.964H27.6452V123.935H25.7761V123.107H27.6452V121.99H25.7761V121.163H27.6452V119.799H28.6657ZM28.8806 128.382V129.209H22.3816V126.244H23.4128V128.382H28.8806Z" fill="#101828"/>
<path d="M167.833 119.167H177.167C177.811 119.167 178.333 119.689 178.333 120.333V129.667C178.333 130.311 177.811 130.833 177.167 130.833H167.833C167.189 130.833 166.667 130.311 166.667 129.667V120.333C166.667 119.689 167.189 119.167 167.833 119.167Z" fill="white"/>
<path d="M167.833 119.167H177.167C177.811 119.167 178.333 119.689 178.333 120.333V129.667C178.333 130.311 177.811 130.833 177.167 130.833H167.833C167.189 130.833 166.667 130.311 166.667 129.667V120.333C166.667 119.689 167.189 119.167 167.833 119.167Z" stroke="#D1D5DC" stroke-width="0.333333"/>
<mask id="mask5_40001129_53530" style="mask-type:alpha" maskUnits="userSpaceOnUse" x="168" y="121" width="9" height="8">
<rect x="168.5" y="121" width="8" height="8" fill="#D9D9D9"/>
</mask>
<g mask="url(#mask5_40001129_53530)">
<path d="M172.516 127.669C171.772 127.669 171.139 127.411 170.616 126.894C170.094 126.378 169.833 125.747 169.833 125.003V124.944L169.3 125.478L168.833 125.011L170.166 123.678L171.5 125.011L171.033 125.478L170.5 124.944V125.003C170.5 125.558 170.696 126.03 171.087 126.419C171.479 126.808 171.955 127.003 172.516 127.003C172.661 127.003 172.802 126.986 172.941 126.953C173.08 126.919 173.216 126.869 173.35 126.803L173.85 127.303C173.639 127.425 173.422 127.516 173.2 127.578C172.977 127.639 172.75 127.669 172.516 127.669ZM174.833 126.328L173.5 124.994L173.966 124.528L174.5 125.061V125.003C174.5 124.447 174.304 123.975 173.912 123.586C173.521 123.197 173.044 123.003 172.483 123.003C172.339 123.003 172.197 123.019 172.058 123.053C171.919 123.086 171.783 123.136 171.65 123.203L171.15 122.703C171.361 122.58 171.577 122.489 171.8 122.428C172.022 122.366 172.25 122.336 172.483 122.336C173.227 122.336 173.861 122.594 174.383 123.111C174.905 123.628 175.166 124.258 175.166 125.003V125.061L175.7 124.528L176.166 124.994L174.833 126.328Z" fill="#364153"/>
</g>
<path d="M14.4141 149.547C15.9453 149.555 16.9141 150.039 16.9219 150.875C16.9141 151.695 15.9453 152.188 14.4141 152.188C12.8906 152.188 11.9141 151.695 11.9141 150.875C11.9141 150.039 12.8906 149.555 14.4141 149.547ZM14.4141 150.203C13.3984 150.203 12.7812 150.445 12.7891 150.875C12.7812 151.289 13.3984 151.516 14.4141 151.516C15.4375 151.516 16.0547 151.289 16.0625 150.875C16.0547 150.445 15.4375 150.203 14.4141 150.203ZM16.875 145.469V146.055C16.875 146.609 16.875 147.203 16.6797 147.93L15.8203 147.852C15.9961 147.164 16.0078 146.668 16.0078 146.156H11.9844V145.469H16.875ZM17.6562 148.336V149.039H11.25V148.336H13.7344V147.055H14.5938V148.336H17.6562ZM24.5859 148.531V149.227H18.1484V148.531H19.6484V147.633C19.1172 147.41 18.8125 147.055 18.8125 146.594C18.8125 145.75 19.8047 145.25 21.3594 145.25C22.9141 145.25 23.8984 145.75 23.9062 146.594C23.9023 147.059 23.5977 147.414 23.0625 147.633V148.531H24.5859ZM21.3594 149.656C22.8828 149.648 23.7969 150.102 23.8047 150.914C23.7969 151.734 22.8828 152.18 21.3594 152.18C19.8203 152.18 18.8984 151.734 18.8984 150.914C18.8984 150.102 19.8203 149.648 21.3594 149.656ZM21.3594 150.312C20.3281 150.312 19.7734 150.516 19.7812 150.914C19.7734 151.312 20.3281 151.523 21.3594 151.523C22.3672 151.523 22.9297 151.312 22.9375 150.914C22.9297 150.516 22.3672 150.312 21.3594 150.312ZM21.3594 145.922C20.3125 145.922 19.7109 146.156 19.7188 146.594C19.7109 147.023 20.3125 147.25 21.3594 147.25C22.3984 147.25 23.0078 147.023 23.0078 146.594C23.0078 146.156 22.3984 145.922 21.3594 145.922ZM20.5234 148.531H22.1953V147.859C21.9414 147.895 21.6602 147.914 21.3594 147.914C21.0586 147.914 20.7773 147.895 20.5234 147.859V148.531Z" fill="#101828"/>
<rect x="11" y="161.5" width="24" height="18" rx="4" fill="#8E51FF"/>
<path d="M22.3799 167.436V171.947H21.6211V169.685H20.5273V169.069H21.6211V167.436H22.3799ZM22.5371 172.87V173.485H18.3262V171.551H19.085V172.87H22.5371ZM19.4746 168.666C19.4746 169.411 19.9736 170.177 20.9307 170.491L20.5479 171.1C19.8574 170.864 19.3687 170.396 19.0986 169.808C18.8252 170.46 18.3091 170.977 17.5811 171.229L17.1914 170.614C18.1758 170.293 18.7021 169.479 18.7021 168.659V168.495H17.417V167.88H20.7529V168.495H19.4746V168.666ZM25.0016 169.315C25.0016 170.272 25.3981 171.236 26.2594 171.701L25.8356 172.262C25.2614 171.958 24.8717 171.414 24.653 170.765C24.4342 171.465 24.0446 172.063 23.4635 172.405L23.0192 171.831C23.8942 171.325 24.2838 170.293 24.2838 169.315V169.124H23.2311V168.509H24.2838V167.647H25.0016V168.509H26.0338V169.124H25.0016V169.315ZM28.4332 167.429V173.608H27.7086V167.429H28.4332ZM27.1754 167.545V173.308H26.4577V170.43H25.651V169.801H26.4577V167.545H27.1754Z" fill="white"/>
<rect x="39.25" y="161.75" width="29.5" height="17.5" rx="3.75" fill="white"/>
<rect x="39.25" y="161.75" width="29.5" height="17.5" rx="3.75" stroke="#D1D5DC" stroke-width="0.5"/>
<path d="M50.2842 167.477V171.1H49.7441V169.507H48.5205V169.062H49.7441V167.477H50.2842ZM48.2676 171.291C49.5322 171.291 50.3047 171.701 50.3047 172.419C50.3047 173.137 49.5322 173.547 48.2676 173.554C47.0029 173.547 46.2305 173.137 46.2305 172.419C46.2305 171.701 47.0029 171.291 48.2676 171.291ZM48.2676 171.708C47.3379 171.708 46.7568 171.975 46.7637 172.419C46.7568 172.856 47.3379 173.123 48.2676 173.123C49.1973 173.123 49.7715 172.856 49.7715 172.419C49.7715 171.975 49.1973 171.708 48.2676 171.708ZM47.3584 168.591C47.3584 169.384 47.9668 170.136 48.8555 170.443L48.5752 170.874C47.8916 170.628 47.3618 170.119 47.1055 169.486C46.8389 170.201 46.2749 170.771 45.5537 171.045L45.2734 170.614C46.1758 170.286 46.8184 169.466 46.8184 168.598V168.372H45.4443V167.921H48.7188V168.372H47.3584V168.591ZM54.2047 168.044C54.2047 168.898 55.3258 169.644 56.4196 169.794L56.2008 170.231C55.2575 170.074 54.3244 169.551 53.9313 168.803C53.5416 169.555 52.6051 170.074 51.6618 170.231L51.443 169.794C52.5368 169.644 53.651 168.912 53.651 168.044V167.695H54.2047V168.044ZM56.693 170.901V171.353H54.1774V173.554H53.651V171.353H51.1559V170.901H56.693ZM62.0901 167.477V173.554H61.5501V167.477H62.0901ZM60.2923 168.14C60.2854 169.89 59.472 171.435 57.4348 172.412L57.1409 171.975C58.7849 171.195 59.6223 170.03 59.7454 168.577H57.4212V168.14H60.2923Z" fill="#1E2939"/>
<rect x="73.25" y="161.75" width="41.5" height="17.5" rx="3.75" fill="white"/>
<rect x="73.25" y="161.75" width="41.5" height="17.5" rx="3.75" stroke="#D1D5DC" stroke-width="0.5"/>
<path d="M84.2842 167.483V171.94H83.7441V169.609H82.4932V169.165H83.7441V167.483H84.2842ZM84.4551 172.973V173.424H80.3809V171.537H80.9209V172.973H84.4551ZM81.3584 168.734C81.3584 169.521 81.9668 170.286 82.8555 170.587L82.5752 171.018C81.8882 170.771 81.3584 170.259 81.0986 169.63C80.8354 170.331 80.2749 170.891 79.5537 171.161L79.2734 170.724C80.1689 170.409 80.8184 169.609 80.8184 168.734V168.42H79.4443V167.976H82.7188V168.42H81.3584V168.734ZM87.2135 169.343C87.2067 170.32 87.9108 171.394 88.7926 171.811L88.485 172.234C87.8014 171.903 87.2238 171.178 86.9538 170.354C86.6735 171.25 86.0617 172.036 85.3815 172.385L85.0534 171.961C85.9284 171.537 86.6803 170.382 86.6871 169.343V168.55H85.2721V168.105H88.5807V168.55H87.2135V169.343ZM89.859 167.477V169.938H90.8776V170.396H89.859V173.554H89.3258V167.477H89.859ZM93.4378 168.153V170.252H91.7903V171.605C92.491 171.602 93.1541 171.578 93.9641 171.435L94.0052 171.879C93.137 172.036 92.4466 172.05 91.6741 172.057H91.2708V169.808H92.9251V168.598H91.2571V168.153H93.4378ZM96.261 167.477V173.554H95.7483V167.477H96.261ZM95.0169 167.627V173.232H94.511V170.108H93.7317V169.671H94.511V167.627H95.0169ZM101.993 167.483V171.927H101.46V167.483H101.993ZM102.184 172.973V173.424H98.0693V171.476H98.6025V172.973H102.184ZM98.7118 167.907C99.621 167.907 100.305 168.522 100.305 169.397C100.305 170.286 99.621 170.895 98.7118 170.895C97.8027 170.895 97.1191 170.286 97.1191 169.397C97.1191 168.522 97.8027 167.907 98.7118 167.907ZM98.7118 168.379C98.0966 168.379 97.6386 168.803 97.6454 169.397C97.6386 170.006 98.0966 170.423 98.7118 170.423C99.3134 170.423 99.7782 170.006 99.7782 169.397C99.7782 168.803 99.3134 168.379 98.7118 168.379ZM105.059 169.343C105.059 170.375 105.811 171.421 106.707 171.811L106.406 172.234C105.695 171.91 105.08 171.209 104.799 170.368C104.512 171.26 103.9 172.036 103.207 172.385L102.885 171.961C103.753 171.544 104.512 170.396 104.519 169.343V168.55H103.084V168.105H106.508V168.55H105.059V169.343ZM107.896 167.477V173.554H107.356V167.477H107.896Z" fill="#1E2939"/>
<rect x="119.25" y="161.75" width="29.5" height="17.5" rx="3.75" fill="white"/>
<rect x="119.25" y="161.75" width="29.5" height="17.5" rx="3.75" stroke="#D1D5DC" stroke-width="0.5"/>
<path d="M127.051 169.206C127.051 170.17 127.522 171.216 128.329 171.694L128.021 172.111C127.437 171.756 127.017 171.106 126.805 170.368C126.579 171.175 126.128 171.869 125.52 172.241L125.178 171.838C126.019 171.346 126.531 170.266 126.531 169.227V168.051H127.051V169.206ZM130.455 167.477V173.554H129.936V167.477H130.455ZM129.197 167.606V173.246H128.691V170.115H127.659V169.657H128.691V167.606H129.197ZM134.239 167.894V168.338H131.976V169.131H134.123V169.555H131.976V170.396C133.159 170.396 133.839 170.365 134.635 170.218L134.697 170.662C133.856 170.806 133.159 170.833 131.901 170.826H131.443V167.894H134.239ZM135.907 167.477V169.097H136.823V169.555H135.907V171.161H135.374V167.477H135.907ZM135.907 171.462V173.554H135.374V171.899H131.928V171.462H135.907ZM142.09 167.477V173.554H141.55V167.477H142.09ZM140.292 168.14C140.285 169.89 139.472 171.435 137.435 172.412L137.141 171.975C138.785 171.195 139.622 170.03 139.745 168.577H137.421V168.14H140.292Z" fill="#1E2939"/>
<rect x="11.25" y="183.75" width="29.5" height="17.5" rx="3.75" fill="white"/>
<rect x="11.25" y="183.75" width="29.5" height="17.5" rx="3.75" stroke="#D1D5DC" stroke-width="0.5"/>
<path d="M22.2842 189.483V193.975H21.7441V191.808H20.3975V191.356H21.7441V189.483H22.2842ZM20.4248 189.948C20.418 191.507 19.3037 192.696 17.5742 193.264L17.3418 192.833C18.7432 192.372 19.7173 191.5 19.8369 190.399H17.6494V189.948H20.4248ZM22.4414 194.973V195.424H18.415V193.517H18.9619V194.973H22.4414ZM28.7204 194.323V194.774H23.1559V194.323H25.6647V192.847H26.2047V194.323H28.7204ZM26.2047 190.632C26.2047 191.603 27.4079 192.437 28.4538 192.607L28.235 193.031C27.3053 192.85 26.3244 192.259 25.9381 191.411C25.5451 192.262 24.5675 192.867 23.6549 193.059L23.4293 192.628C24.4547 192.45 25.651 191.603 25.651 190.632V190.481H23.6139V190.03H28.2418V190.481H26.2047V190.632ZM34.0901 189.477V195.554H33.5501V189.477H34.0901ZM32.2923 190.14C32.2854 191.89 31.472 193.435 29.4348 194.412L29.1409 193.975C30.7849 193.195 31.6223 192.03 31.7454 190.577H29.4212V190.14H32.2923Z" fill="#1E2939"/>
<rect x="45.25" y="183.75" width="29.5" height="17.5" rx="3.75" fill="white"/>
<rect x="45.25" y="183.75" width="29.5" height="17.5" rx="3.75" stroke="#D1D5DC" stroke-width="0.5"/>
<path d="M56.4072 189.483V193.168H55.8945V191.521H55.0195V192.942H54.5205V189.6H55.0195V191.069H55.8945V189.483H56.4072ZM54.3975 193.257C55.6484 193.257 56.4414 193.688 56.4414 194.405C56.4414 195.116 55.6484 195.54 54.3975 195.54C53.1396 195.54 52.3535 195.116 52.3604 194.405C52.3535 193.688 53.1396 193.257 54.3975 193.257ZM54.3975 193.688C53.4678 193.688 52.8867 193.954 52.8936 194.405C52.8867 194.843 53.4678 195.109 54.3975 195.109C55.3203 195.109 55.9014 194.843 55.9082 194.405C55.9014 193.954 55.3203 193.688 54.3975 193.688ZM52.0869 189.969V192.149C52.7295 192.146 53.3481 192.112 54.0967 191.965L54.1445 192.409C53.3311 192.566 52.6611 192.601 51.9365 192.601H51.5537V189.969H52.0869ZM59.2135 190.632C59.2135 191.425 59.8082 192.136 60.7038 192.43L60.4508 192.854C59.7501 192.625 59.2204 192.139 58.9606 191.527C58.6974 192.225 58.1369 192.768 57.4088 193.031L57.1354 192.601C58.0446 192.293 58.6803 191.507 58.6871 190.632V190.372H57.2995V189.928H60.5807V190.372H59.2135V190.632ZM61.9069 189.477V191.028H62.8229V191.479H61.9069V193.147H61.3737V189.477H61.9069ZM59.9586 193.312C61.2096 193.312 61.9616 193.722 61.9616 194.419C61.9616 195.13 61.2096 195.54 59.9586 195.54C58.7077 195.54 57.942 195.13 57.942 194.419C57.942 193.722 58.7077 193.312 59.9586 193.312ZM59.9586 193.742C59.0426 193.742 58.4752 193.995 58.4821 194.419C58.4752 194.856 59.0426 195.109 59.9586 195.109C60.8815 195.109 61.442 194.856 61.442 194.419C61.442 193.995 60.8815 193.742 59.9586 193.742ZM67.9397 190.092V190.7C67.9329 191.445 67.9329 192.279 67.7141 193.503L67.1673 193.441C67.3997 192.279 67.3997 191.425 67.3997 190.7V190.536H63.6536V190.092H67.9397ZM68.6028 194.248V194.692H63.0657V194.248H65.2395V192.074H65.7659V194.248H68.6028Z" fill="#1E2939"/>
<rect x="79.25" y="183.75" width="29.5" height="17.5" rx="3.75" fill="white"/>
<rect x="79.25" y="183.75" width="29.5" height="17.5" rx="3.75" stroke="#D1D5DC" stroke-width="0.5"/>
<path d="M90.9336 191.021V191.479H89.9492V192.812H90.9336V193.271H89.9492V195.554H89.416V189.477H89.9492V191.021H90.9336ZM87.2832 191.11C87.2832 192.204 87.9873 193.298 88.8555 193.701L88.5273 194.146C87.8643 193.797 87.3003 193.093 87.0234 192.252C86.75 193.141 86.1792 193.906 85.5059 194.269L85.1572 193.845C86.0459 193.4 86.75 192.218 86.7568 191.11V190.003H87.2832V191.11ZM96.1871 189.483V195.561H95.6403V194.05H94.2389V193.64H95.6403V189.483H96.1871ZM91.1286 192.683C92.2907 192.683 93.8288 192.676 95.1686 192.484L95.2028 192.888C94.6012 192.99 93.9757 193.052 93.3707 193.086V195.369H92.8307V193.113C92.2462 193.137 91.6925 193.141 91.2038 193.141L91.1286 192.683ZM93.1315 189.784C94.0338 189.784 94.6627 190.27 94.6627 190.98C94.6627 191.705 94.0338 192.17 93.1315 192.17C92.2223 192.17 91.5934 191.705 91.5934 190.98C91.5934 190.27 92.2223 189.784 93.1315 189.784ZM93.1315 190.201C92.5163 190.201 92.0924 190.522 92.0993 190.98C92.0924 191.445 92.5163 191.753 93.1315 191.753C93.7262 191.753 94.1569 191.445 94.1569 190.98C94.1569 190.522 93.7262 190.201 93.1315 190.201ZM102.076 189.477V192.628H101.55V189.477H102.076ZM102.083 192.936V194.392H98.6721V195.048H102.302V195.485H98.1458V193.975H101.55V193.366H98.1321V192.936H102.083ZM99.219 190.119C99.2122 190.98 99.8684 191.739 100.771 192.033L100.504 192.45C99.7932 192.208 99.2259 191.698 98.9524 191.042C98.679 191.75 98.1082 192.307 97.387 192.566L97.1067 192.143C98.0227 191.821 98.6721 191.015 98.6721 190.119V189.654H99.219V190.119Z" fill="#1E2939"/>
<rect x="113.25" y="183.75" width="30.5" height="17.5" rx="3.75" fill="white"/>
<rect x="113.25" y="183.75" width="30.5" height="17.5" rx="3.75" stroke="#D1D5DC" stroke-width="0.5"/>
<path d="M122.924 191.609C122.78 190.926 122.192 190.557 121.543 190.557C120.647 190.557 119.95 191.247 119.95 192.525C119.95 193.804 120.647 194.494 121.543 194.494C122.192 194.494 122.773 194.125 122.924 193.448H123.539C123.361 194.46 122.548 195.068 121.543 195.068C120.271 195.068 119.355 194.091 119.355 192.525C119.355 190.96 120.271 189.982 121.543 189.982C122.541 189.982 123.354 190.584 123.539 191.609H122.924ZM127.637 191.609C127.494 190.926 126.906 190.557 126.256 190.557C125.361 190.557 124.664 191.247 124.664 192.525C124.664 193.804 125.361 194.494 126.256 194.494C126.906 194.494 127.487 194.125 127.637 193.448H128.253C128.075 194.46 127.261 195.068 126.256 195.068C124.985 195.068 124.069 194.091 124.069 192.525C124.069 190.96 124.985 189.982 126.256 189.982C127.255 189.982 128.068 190.584 128.253 191.609H127.637ZM128.7 190.598V190.051H132.433V190.598H130.881V195H130.259V190.598H128.7ZM133.339 190.051L134.795 194.2H134.85L136.312 190.051H136.962L135.15 195H134.501L132.689 190.051H133.339Z" fill="#1E2939"/>
<rect x="148.25" y="183.75" width="25.5" height="17.5" rx="3.75" fill="white"/>
<rect x="148.25" y="183.75" width="25.5" height="17.5" rx="3.75" stroke="#D1D5DC" stroke-width="0.5"/>
<path d="M155.463 195L154.109 190.051H154.731L155.764 194.057H155.812L156.857 190.051H157.548L158.601 194.057H158.642L159.674 190.051H160.296L158.942 195H158.307L157.227 191.083H157.186L156.099 195H155.463ZM161.427 190.051V195H160.812V190.051H161.427ZM162.381 195V190.051H165.362V190.598H162.996V192.252H165.136V192.792H162.996V195H162.381ZM166.753 190.051V195H166.138V190.051H166.753Z" fill="#1E2939"/>
<rect x="11.25" y="205.75" width="23.5" height="17.5" rx="3.75" fill="white"/>
<rect x="11.25" y="205.75" width="23.5" height="17.5" rx="3.75" stroke="#D1D5DC" stroke-width="0.5"/>
<path d="M21.9971 211.477V213.329H22.9131V213.78H21.9971V215.927H21.457V211.477H21.9971ZM20.3564 211.948C20.3564 213.514 19.2354 214.676 17.4854 215.223L17.2529 214.792C18.709 214.337 19.6592 213.469 19.7754 212.399H17.5059V211.948H20.3564ZM22.2773 216.973V217.424H18.1895V215.476H18.7227V216.973H22.2773ZM25.3092 212.358C25.3024 213.247 25.945 214.033 26.8473 214.348L26.5739 214.771C25.8698 214.515 25.3126 213.989 25.0426 213.315C24.7726 214.037 24.2086 214.604 23.4977 214.881L23.2174 214.457C24.1266 214.122 24.7623 213.274 24.7623 212.358V211.777H25.3092V212.358ZM28.1735 215.441V217.554H27.6403V215.886H24.0856V215.441H28.1735ZM28.1735 211.477V215.141H27.6403V211.477H28.1735Z" fill="#1E2939"/>
<rect x="39.25" y="205.75" width="29.5" height="17.5" rx="3.75" fill="white"/>
<rect x="39.25" y="205.75" width="29.5" height="17.5" rx="3.75" stroke="#D1D5DC" stroke-width="0.5"/>
<path d="M50.2637 211.483V215.94H49.7305V211.483H50.2637ZM50.4551 216.973V217.424H46.3398V215.53H46.873V216.973H50.4551ZM47.3994 212.434C47.3926 213.356 48.0283 214.19 48.9307 214.519L48.6504 214.949C47.9463 214.679 47.3994 214.132 47.1328 213.432C46.8628 214.177 46.3091 214.775 45.6016 215.059L45.3076 214.642C46.2305 214.286 46.8525 213.391 46.8525 212.434V211.825H47.3994V212.434ZM51.942 211.736V212.611H53.7125V211.736H54.2457V214.382H51.4157V211.736H51.942ZM51.942 213.944H53.7125V213.028H51.942V213.944ZM55.9069 211.477V212.796H56.8229V213.247H55.9069V214.621H55.3737V211.477H55.9069ZM55.9069 214.908V216.378H52.5709V217.048H56.1325V217.485H52.0446V215.968H55.3737V215.339H52.0309V214.908H55.9069ZM59.1233 212.632C59.1233 213.425 59.718 214.136 60.6136 214.43L60.3606 214.854C59.6599 214.625 59.1302 214.139 58.8704 213.527C58.6072 214.225 58.0467 214.768 57.3186 215.031L57.0452 214.601C57.9544 214.293 58.5901 213.507 58.597 212.632V212.372H57.2093V211.928H60.4905V212.372H59.1233V212.632ZM61.8167 211.477V213.028H62.7327V213.479H61.8167V215.147H61.2835V211.477H61.8167ZM59.8684 215.312C61.1194 215.312 61.8714 215.722 61.8714 216.419C61.8714 217.13 61.1194 217.54 59.8684 217.54C58.6175 217.54 57.8518 217.13 57.8518 216.419C57.8518 215.722 58.6175 215.312 59.8684 215.312ZM59.8684 215.742C58.9524 215.742 58.385 215.995 58.3919 216.419C58.385 216.856 58.9524 217.109 59.8684 217.109C60.7913 217.109 61.3518 216.856 61.3518 216.419C61.3518 215.995 60.7913 215.742 59.8684 215.742Z" fill="#1E2939"/>
<rect x="73.25" y="205.75" width="35.5" height="17.5" rx="3.75" fill="white"/>
<rect x="73.25" y="205.75" width="35.5" height="17.5" rx="3.75" stroke="#D1D5DC" stroke-width="0.5"/>
<path d="M83.9902 211.477V213.609H84.8994V214.061H83.9902V216.234H83.4502V211.477H83.9902ZM84.209 216.973V217.424H80.1279V215.913H80.668V216.973H84.209ZM79.2188 215.093C79.7007 215.093 80.2715 215.089 80.8662 215.065V214.601C80.1587 214.536 79.7041 214.197 79.7041 213.685C79.7041 213.097 80.2715 212.748 81.126 212.748C81.9873 212.748 82.5479 213.097 82.5547 213.685C82.5479 214.194 82.1035 214.532 81.3994 214.601V215.038C81.9702 215.011 82.5444 214.956 83.0742 214.874L83.1221 215.257C81.8164 215.503 80.3467 215.523 79.2803 215.53L79.2188 215.093ZM82.8896 212.078V212.481H79.3691V212.078H80.8662V211.463H81.3994V212.078H82.8896ZM81.126 213.131C80.5654 213.131 80.2168 213.343 80.2168 213.685C80.2168 214.02 80.5654 214.231 81.126 214.231C81.6865 214.231 82.042 214.02 82.042 213.685C82.042 213.343 81.6865 213.131 81.126 213.131ZM90.1803 211.477V217.554H89.6403V211.477H90.1803ZM88.3825 212.14C88.3756 213.89 87.5621 215.435 85.525 216.412L85.2311 215.975C86.8751 215.195 87.7125 214.03 87.8356 212.577H85.5114V212.14H88.3825ZM93.2259 213.11C93.219 214.218 93.9778 215.339 94.8733 215.742L94.5452 216.166C93.8548 215.828 93.2566 215.113 92.9661 214.245C92.6824 215.165 92.0843 215.93 91.3733 216.289L91.0315 215.838C91.9339 215.421 92.6858 214.266 92.6927 213.11V212.003H93.2259V213.11ZM96.0764 211.477V217.567H95.5364V211.477H96.0764ZM102.014 211.477V214.621H101.474V213.042H100.12V212.598H101.474V211.477H102.014ZM102.014 214.929V216.378H98.6161V217.041H102.239V217.472H98.0898V215.968H101.48V215.359H98.0761V214.929H102.014ZM99.0468 212.249C99.04 213.049 99.6689 213.773 100.558 214.067L100.27 214.484C99.5971 214.245 99.0605 213.767 98.7939 213.151C98.5341 213.845 97.9838 214.375 97.2626 214.635L96.9687 214.204C97.8847 213.903 98.5136 213.138 98.5204 212.249V211.675H99.0468V212.249Z" fill="#1E2939"/>
<rect x="113.25" y="205.75" width="29.5" height="17.5" rx="3.75" fill="white"/>
<rect x="113.25" y="205.75" width="29.5" height="17.5" rx="3.75" stroke="#D1D5DC" stroke-width="0.5"/>
<path d="M124.811 216.316V216.774H119.246V216.316H124.811ZM124.277 212.092V212.536H123.313V214.662H124.264V215.1H119.752V214.662H120.702V212.536H119.738V212.092H124.277ZM121.235 214.662H122.787V212.536H121.235V214.662ZM130.167 211.483V215.954H129.64V211.483H130.167ZM130.344 216.973V217.424H126.181V215.605H126.721V216.973H130.344ZM128.239 211.914V213.671H125.997V214.642C127.125 214.642 127.924 214.607 128.888 214.437L128.943 214.881C127.952 215.052 127.131 215.086 125.969 215.093H125.477V213.247H127.706V212.352H125.464V211.914H128.239ZM135.988 214.765V215.202H131.783V212.003H135.919V212.454H132.33V213.356H135.789V213.787H132.33V214.765H135.988ZM136.63 216.316V216.761H131.066V216.316H136.63Z" fill="#1E2939"/>
<rect x="11.25" y="227.75" width="35.5" height="17.5" rx="3.75" fill="white"/>
<rect x="11.25" y="227.75" width="35.5" height="17.5" rx="3.75" stroke="#D1D5DC" stroke-width="0.5"/>
<path d="M20.3359 234.112C20.3291 235.869 19.707 237.476 17.5605 238.549L17.2529 238.139C18.3706 237.578 19.061 236.877 19.4404 236.054L17.3691 236.252L17.2734 235.787L19.6045 235.63C19.7139 235.292 19.7788 234.933 19.8027 234.557H17.5811V234.112H20.3359ZM22.2773 233.477V239.554H21.7441V236.368H20.3154V235.924H21.7441V233.477H22.2773ZM28.1803 233.477V239.554H27.6403V233.477H28.1803ZM26.7789 234.14V234.584H26.0885V237.51C26.4303 237.486 26.7687 237.455 27.0934 237.414L27.1276 237.817C25.8014 238.022 24.3385 238.043 23.2106 238.05L23.1491 237.592L23.9899 237.585V234.584H23.3063V234.14H26.7789ZM24.5163 237.578C24.858 237.571 25.2101 237.558 25.5621 237.537V234.584H24.5163V237.578ZM32.0804 234.085V235.705H33.5706V233.477H34.1038V239.567H33.5706V236.149H32.0804V238.016H29.3118V234.085H32.0804ZM29.845 234.509V237.585H31.5608V234.509H29.845ZM39.9931 233.483V237.94H39.4599V233.483H39.9931ZM40.1845 238.973V239.424H36.0693V237.53H36.6025V238.973H40.1845ZM37.1288 234.434C37.122 235.356 37.7577 236.19 38.6601 236.519L38.3798 236.949C37.6757 236.679 37.1288 236.132 36.8622 235.432C36.5922 236.177 36.0385 236.775 35.331 237.059L35.037 236.642C35.9599 236.286 36.582 235.391 36.582 234.434V233.825H37.1288V234.434Z" fill="#1E2939"/>
<rect x="11" y="255.5" width="36" height="18" rx="4" fill="#364153"/>
<path d="M22.7832 265.154V265.605H20.2744V267.567H19.748V265.605H17.2461V265.154H22.7832ZM20.2812 262.68C20.2812 263.438 21.3408 264.102 22.4277 264.252L22.2295 264.683C21.2896 264.539 20.4043 264.067 20.0215 263.404C19.6318 264.074 18.7329 264.539 17.793 264.683L17.5947 264.252C18.6748 264.102 19.748 263.445 19.748 262.68V262.673H17.7861V262.235H19.748V261.477H20.2744V262.235H22.25V262.673H20.2812V262.68ZM27.859 261.477V263.951H28.8434V264.402H27.859V267.554H27.3258V261.477H27.859ZM26.2868 262.133C26.2868 263.855 25.4801 265.421 23.4977 266.398L23.1969 265.975C24.7692 265.192 25.6237 264.023 25.7467 262.584H23.4772V262.133H26.2868ZM34.1038 261.483V265.975H33.5638V263.808H32.2171V263.356H33.5638V261.483H34.1038ZM32.2444 261.948C32.2376 263.507 31.1233 264.696 29.3938 265.264L29.1614 264.833C30.5628 264.372 31.5369 263.5 31.6565 262.399H29.469V261.948H32.2444ZM34.261 266.973V267.424H30.2346V265.517H30.7815V266.973H34.261ZM36.9648 261.921C37.9218 261.921 38.5986 262.502 38.5986 263.35C38.5986 264.197 37.9218 264.778 36.9648 264.778C36.0077 264.778 35.3173 264.197 35.3241 263.35C35.3173 262.502 36.0077 261.921 36.9648 261.921ZM36.9648 262.393C36.3154 262.393 35.8437 262.782 35.8505 263.35C35.8437 263.917 36.3154 264.307 36.9648 264.307C37.6073 264.307 38.0722 263.917 38.0722 263.35C38.0722 262.782 37.6073 262.393 36.9648 262.393ZM39.9589 261.477V267.567H39.4257V261.477H39.9589ZM35.0097 265.77C36.1308 265.77 37.6757 265.763 39.0224 265.564L39.0634 265.961C37.6757 266.221 36.1786 266.228 35.0849 266.228L35.0097 265.77Z" fill="white"/>
<circle opacity="0.5" cx="59" cy="99" r="10" fill="#DDD6FF"/>
<circle opacity="0.2" cx="59" cy="99" r="17.9" stroke="#8E51FF" stroke-width="0.2"/>
<circle opacity="0.7" cx="59" cy="99" r="7" fill="#8E51FF"/>
<mask id="path-60-inside-1_40001129_53530" fill="white">
<path d="M75.7495 157.02L69.6754 160.527L74.4254 168.755L68.074 172.422L63.324 164.194L57.25 167.701L57.2497 146.339L75.7495 157.02Z"/>
</mask>
<path d="M75.7495 157.02L69.6754 160.527L74.4254 168.755L68.074 172.422L63.324 164.194L57.25 167.701L57.2497 146.339L75.7495 157.02Z" fill="white"/>
<path d="M75.7495 157.02L76.2495 157.887L77.7494 157.021L76.2495 156.154L75.7495 157.02ZM69.6754 160.527L69.1754 159.661L68.3094 160.161L68.8094 161.027L69.6754 160.527ZM74.4254 168.755L74.9254 169.621L75.7915 169.121L75.2915 168.255L74.4254 168.755ZM68.074 172.422L67.208 172.922L67.708 173.788L68.574 173.288L68.074 172.422ZM63.324 164.194L64.19 163.694L63.69 162.828L62.824 163.328L63.324 164.194ZM57.25 167.701L56.25 167.701L56.25 169.433L57.75 168.567L57.25 167.701ZM57.2497 146.339L57.7497 145.473L56.2497 144.607L56.2497 146.339L57.2497 146.339ZM75.7495 157.02L75.2495 156.154L69.1754 159.661L69.6754 160.527L70.1754 161.393L76.2495 157.887L75.7495 157.02ZM69.6754 160.527L68.8094 161.027L73.5594 169.255L74.4254 168.755L75.2915 168.255L70.5415 160.027L69.6754 160.527ZM74.4254 168.755L73.9254 167.889L67.574 171.556L68.074 172.422L68.574 173.288L74.9254 169.621L74.4254 168.755ZM68.074 172.422L68.94 171.922L64.19 163.694L63.324 164.194L62.458 164.694L67.208 172.922L68.074 172.422ZM63.324 164.194L62.824 163.328L56.75 166.835L57.25 167.701L57.75 168.567L63.824 165.06L63.324 164.194ZM57.25 167.701L58.25 167.701L58.2497 146.339L57.2497 146.339L56.2497 146.339L56.25 167.701L57.25 167.701ZM57.2497 146.339L56.7497 147.205L75.2494 157.887L75.7495 157.02L76.2495 156.154L57.7497 145.473L57.2497 146.339Z" fill="black" mask="url(#path-60-inside-1_40001129_53530)"/>
</svg>
