<svg width="80" height="80" viewBox="0 0 80 80" fill="none" xmlns="http://www.w3.org/2000/svg">
<mask id="path-1-inside-1_40001087_57073" fill="white">
<path d="M65 60C65 62.2091 63.2091 64 61 64H19C16.7909 64 15 62.2091 15 60V25C15 22.7909 16.7909 21 19 21H61C63.2091 21 65 22.7909 65 25V60Z"/>
</mask>
<path d="M65 60C65 62.2091 63.2091 64 61 64H19C16.7909 64 15 62.2091 15 60V25C15 22.7909 16.7909 21 19 21H61C63.2091 21 65 22.7909 65 25V60Z" fill="white"/>
<path d="M61 64V62.5H19V64V65.5H61V64ZM15 60H16.5V25H15H13.5V60H15ZM19 21V22.5H61V21V19.5H19V21ZM65 25H63.5V60H65H66.5V25H65ZM61 21V22.5C62.3807 22.5 63.5 23.6193 63.5 25H65H66.5C66.5 21.9624 64.0376 19.5 61 19.5V21ZM15 25H16.5C16.5 23.6193 17.6193 22.5 19 22.5V21V19.5C15.9624 19.5 13.5 21.9624 13.5 25H15ZM19 64V62.5C17.6193 62.5 16.5 61.3807 16.5 60H15H13.5C13.5 63.0376 15.9624 65.5 19 65.5V64ZM61 64V65.5C64.0376 65.5 66.5 63.0376 66.5 60H65H63.5C63.5 61.3807 62.3807 62.5 61 62.5V64Z" fill="#8E51FF" mask="url(#path-1-inside-1_40001087_57073)"/>
<rect x="38" y="15" width="4" height="11" rx="2" fill="#8E51FF"/>
<rect x="50" y="15" width="4" height="11" rx="2" fill="#8E51FF"/>
<rect x="26" y="15" width="4" height="11" rx="2" fill="#8E51FF"/>
<path d="M64 21C66.2091 21 68 22.7909 68 25V60C68 62.2091 66.2091 64 64 64V21Z" fill="#8E51FF"/>
<rect x="60" y="21" width="4" height="1.5" fill="#8E51FF"/>
<rect x="60" y="62.5" width="4" height="1.5" fill="#8E51FF"/>
<circle cx="61.0712" cy="57.9286" r="13.9286" fill="#8E51FF"/>
<circle cx="58.9286" cy="57.9286" r="13.1786" fill="white" stroke="#8E51FF" stroke-width="1.5"/>
<path d="M59.1436 52.2793H63.6035V54.0732H56.373C55.5571 54.0733 54.8947 54.7348 54.8945 55.5508C54.8947 56.3668 55.557 57.0283 56.373 57.0283H60.7275C62.5346 57.0284 63.9999 58.4937 64 60.3008C63.9998 62.1078 62.5346 63.5732 60.7275 63.5732H59.1436V65.0479H57.9561V63.5732H53.4971V61.7783H60.7275C61.5435 61.7783 62.2059 61.1167 62.2061 60.3008C62.206 59.4847 61.5436 58.8233 60.7275 58.8232H56.2158V58.8193C54.4816 58.7374 53.1008 57.3052 53.1006 55.5508C53.1008 53.7438 54.566 52.2793 56.373 52.2793H57.9561V50.8008H59.1436V52.2793Z" fill="#8E51FF"/>
<rect x="22" y="32" width="6" height="6" rx="1" fill="#8E51FF"/>
<rect x="32" y="32" width="6" height="6" rx="1" fill="#8E51FF"/>
<rect x="42" y="32" width="6" height="6" rx="1" fill="#8E51FF"/>
<rect x="32" y="42" width="6" height="6" rx="1" fill="#8E51FF"/>
<rect x="22" y="42" width="6" height="6" rx="1" fill="#8E51FF"/>
<rect x="59.2793" y="71.043" width="1.55078" height="0.8125" fill="#8E51FF"/>
<rect x="59.2793" y="44" width="1.55078" height="0.8125" fill="#8E51FF"/>
</svg>
