<svg width="80" height="80" viewBox="0 0 80 80" fill="none" xmlns="http://www.w3.org/2000/svg">
<path d="M62.9999 65.1176C62.9999 66.6716 60.9272 67.2001 60.1831 65.8358L57.8066 61.4788C57.4432 60.8125 57.9255 60 58.6845 60L62 60C62.5523 60 63 60.4477 63 61L62.9999 65.1176Z" fill="#8E51FF"/>
<rect x="35" y="37" width="36" height="26" rx="4" fill="#8E51FF"/>
<mask id="path-3-inside-1_40001087_57112" fill="white">
<path d="M65 37C67.2091 37 69 38.7909 69 41V59C69 61.2091 67.2091 63 65 63H62V65.1172C62 66.6712 59.9267 67.2002 59.1826 65.8359L57.6367 63H37C34.7909 63 33 61.2091 33 59V41C33 38.7909 34.7909 37 37 37H65Z"/>
</mask>
<path d="M65 37C67.2091 37 69 38.7909 69 41V59C69 61.2091 67.2091 63 65 63H62V65.1172C62 66.6712 59.9267 67.2002 59.1826 65.8359L57.6367 63H37C34.7909 63 33 61.2091 33 59V41C33 38.7909 34.7909 37 37 37H65Z" fill="white"/>
<path d="M69 41H70.5H69ZM65 63V64.5V63ZM62 63V61.5H60.5V63H62ZM62 65.1172L63.5 65.1172V65.1172H62ZM59.1826 65.8359L57.8656 66.5539L57.8658 66.5542L59.1826 65.8359ZM57.6367 63L58.9538 62.2821L58.5274 61.5H57.6367V63ZM33 59H31.5H33ZM37 37V35.5V37ZM65 37V38.5C66.3807 38.5 67.5 39.6193 67.5 41H69H70.5C70.5 37.9624 68.0376 35.5 65 35.5V37ZM69 41H67.5V59H69H70.5V41H69ZM69 59H67.5C67.5 60.3807 66.3807 61.5 65 61.5V63V64.5C68.0376 64.5 70.5 62.0376 70.5 59H69ZM65 63V61.5H62V63V64.5H65V63ZM62 63H60.5V65.1172H62H63.5V63H62ZM62 65.1172L60.5 65.1172C60.5 65.1307 60.4989 65.1383 60.4984 65.1408C60.498 65.1434 60.4979 65.1426 60.4991 65.1393C60.5003 65.1361 60.5022 65.1319 60.5048 65.1273C60.5074 65.1228 60.5102 65.1189 60.5128 65.1158C60.518 65.1095 60.5207 65.1084 60.518 65.1101C60.5149 65.112 60.5085 65.1152 60.4995 65.1175C60.4905 65.1198 60.4834 65.1201 60.4799 65.1199C60.4767 65.1197 60.4796 65.1194 60.4873 65.1224C60.4911 65.1239 60.4954 65.126 60.4999 65.1287C60.5045 65.1315 60.5082 65.1343 60.5108 65.1366C60.5134 65.139 60.5137 65.1397 60.5121 65.1377C60.5105 65.1357 60.5059 65.1295 60.4995 65.1177L59.1826 65.8359L57.8658 66.5542C59.3546 69.2837 63.5 68.2241 63.5 65.1172L62 65.1172ZM59.1826 65.8359L60.4997 65.118L58.9538 62.2821L57.6367 63L56.3197 63.7179L57.8656 66.5539L59.1826 65.8359ZM57.6367 63V61.5H37V63V64.5H57.6367V63ZM37 63V61.5C35.6193 61.5 34.5 60.3807 34.5 59H33H31.5C31.5 62.0376 33.9624 64.5 37 64.5V63ZM33 59H34.5V41H33H31.5V59H33ZM33 41H34.5C34.5 39.6193 35.6193 38.5 37 38.5V37V35.5C33.9624 35.5 31.5 37.9624 31.5 41H33ZM37 37V38.5H65V37V35.5H37V37Z" fill="#8E51FF" mask="url(#path-3-inside-1_40001087_57112)"/>
<rect x="19" y="16" width="36" height="30" rx="4" fill="#8E51FF"/>
<mask id="path-6-inside-2_40001087_57112" fill="white">
<path d="M49 16C51.2091 16 53 17.7909 53 20V42C53 44.2091 51.2091 46 49 46H22.3633L19.8779 50.5576C19.3817 51.4667 18 51.114 18 50.0781V46H16C13.7909 46 12 44.2091 12 42V20C12 17.7909 13.7909 16 16 16H49Z"/>
</mask>
<path d="M49 16C51.2091 16 53 17.7909 53 20V42C53 44.2091 51.2091 46 49 46H22.3633L19.8779 50.5576C19.3817 51.4667 18 51.114 18 50.0781V46H16C13.7909 46 12 44.2091 12 42V20C12 17.7909 13.7909 16 16 16H49Z" fill="white"/>
<path d="M49 16V14.5V16ZM53 20H54.5H53ZM22.3633 46V44.5H21.4727L21.0464 45.2819L22.3633 46ZM19.8779 50.5576L21.1945 51.2763L21.1948 51.2758L19.8779 50.5576ZM18 50.0781H16.5V50.0781L18 50.0781ZM18 46H19.5V44.5H18V46ZM16 46L16 47.5H16V46ZM12 42H10.5H12ZM49 16V17.5C50.3807 17.5 51.5 18.6193 51.5 20H53H54.5C54.5 16.9624 52.0376 14.5 49 14.5V16ZM53 20H51.5V42H53H54.5V20H53ZM53 42H51.5C51.5 43.3807 50.3807 44.5 49 44.5V46V47.5C52.0376 47.5 54.5 45.0376 54.5 42H53ZM49 46V44.5H22.3633V46V47.5H49V46ZM22.3633 46L21.0464 45.2819L18.561 49.8395L19.8779 50.5576L21.1948 51.2758L23.6802 46.7181L22.3633 46ZM19.8779 50.5576L18.5613 49.8389C18.6053 49.7583 18.6969 49.6669 18.8249 49.6164C18.9391 49.5714 19.0437 49.5734 19.1239 49.5938C19.2042 49.6143 19.2968 49.6628 19.3754 49.7569C19.4634 49.8624 19.5 49.9864 19.5 50.0781L18 50.0781L16.5 50.0781C16.5 52.6667 19.9533 53.5501 21.1945 51.2763L19.8779 50.5576ZM18 50.0781H19.5V46H18H16.5V50.0781H18ZM18 46V44.5H16V46V47.5H18V46ZM16 46L16 44.5C14.6193 44.5 13.5 43.3807 13.5 42H12H10.5C10.5 45.0376 12.9624 47.5 16 47.5L16 46ZM12 42H13.5V20H12H10.5V42H12ZM12 20H13.5C13.5 18.6193 14.6193 17.5 16 17.5V16V14.5C12.9624 14.5 10.5 16.9624 10.5 20H12ZM16 16V17.5H49V16V14.5H16V16Z" fill="#8E51FF" mask="url(#path-6-inside-2_40001087_57112)"/>
<rect x="23" y="29" width="4" height="4" rx="1" fill="#8E51FF"/>
<rect x="30.5" y="29" width="4" height="4" rx="1" fill="#8E51FF"/>
<rect x="38" y="29" width="4" height="4" rx="1" fill="#8E51FF"/>
<rect x="60.4609" y="66.0117" width="1.07812" height="0.609375" fill="#8E51FF"/>
</svg>
