<svg width="80" height="80" viewBox="0 0 80 80" fill="none" xmlns="http://www.w3.org/2000/svg">
<mask id="path-1-inside-1_40001087_57039" fill="white">
<path d="M74 59C74.5523 59 75.0058 59.4494 74.9452 59.9984C74.4485 64.4991 70.6331 68 66 68H21C25.6331 68 29.4485 64.4991 29.9452 59.9984C30.0058 59.4494 30.4477 59 31 59H74Z"/>
</mask>
<path d="M74 59C74.5523 59 75.0058 59.4494 74.9452 59.9984C74.4485 64.4991 70.6331 68 66 68H21C25.6331 68 29.4485 64.4991 29.9452 59.9984C30.0058 59.4494 30.4477 59 31 59H74Z" fill="#8E51FF"/>
<path d="M29.9452 59.9984L31.4362 60.1629L29.9452 59.9984ZM74.9452 59.9984L73.4543 59.8339C73.0405 63.5829 69.8599 66.5 66 66.5V68V69.5C71.4063 69.5 75.8565 65.4154 76.4362 60.1629L74.9452 59.9984ZM66 68V66.5H21V68V69.5H66V68ZM21 68V69.5C26.4063 69.5 30.8565 65.4154 31.4362 60.1629L29.9452 59.9984L28.4543 59.8339C28.0405 63.5829 24.8599 66.5 21 66.5V68ZM31 59V60.5H74V59V57.5H31V59ZM29.9452 59.9984L31.4362 60.1629C31.4281 60.2367 31.3947 60.3099 31.3312 60.3714C31.2627 60.4377 31.1455 60.5 31 60.5V59V57.5C29.5821 57.5 28.5872 58.6294 28.4543 59.8339L29.9452 59.9984ZM74.9452 59.9984L76.4362 60.1629C76.607 58.6153 75.3309 57.5 74 57.5V59V60.5C73.8676 60.5 73.7302 60.4459 73.6237 60.3356C73.5103 60.2182 73.4323 60.0332 73.4543 59.8339L74.9452 59.9984Z" fill="#8E51FF" mask="url(#path-1-inside-1_40001087_57039)"/>
<mask id="path-3-inside-2_40001087_57039" fill="white">
<path d="M31 60C30.4477 60 30.0066 60.45 29.9384 60.998C29.4471 64.9453 26.0803 68 22 68C17.5817 68 14 64.4183 14 60V13C14 12.4477 14.4477 12 15 12H61C61.5523 12 62 12.4477 62 13V59C62 59.5523 61.5523 60 61 60H31Z"/>
</mask>
<path d="M31 60C30.4477 60 30.0066 60.45 29.9384 60.998C29.4471 64.9453 26.0803 68 22 68C17.5817 68 14 64.4183 14 60V13C14 12.4477 14.4477 12 15 12H61C61.5523 12 62 12.4477 62 13V59C62 59.5523 61.5523 60 61 60H31Z" fill="white"/>
<path d="M29.9384 60.998L28.4498 60.8128L29.9384 60.998ZM29.9384 60.998L28.4498 60.8128C28.0509 64.0184 25.3141 66.5 22 66.5V68V69.5C26.8465 69.5 30.8434 65.8722 31.4269 61.1833L29.9384 60.998ZM22 68V66.5C18.4101 66.5 15.5 63.5899 15.5 60H14H12.5C12.5 65.2467 16.7533 69.5 22 69.5V68ZM14 60H15.5V13H14H12.5V60H14ZM15 12V13.5H61V12V10.5H15V12ZM62 13H60.5V59H62H63.5V13H62ZM61 60V58.5H31V60V61.5H61V60ZM61 12V13.5C60.7239 13.5 60.5 13.2761 60.5 13H62H63.5C63.5 11.6193 62.3807 10.5 61 10.5V12ZM14 13H15.5C15.5 13.2761 15.2761 13.5 15 13.5V12V10.5C13.6193 10.5 12.5 11.6193 12.5 13H14ZM62 59H60.5C60.5 58.7239 60.7239 58.5 61 58.5V60V61.5C62.3807 61.5 63.5 60.3807 63.5 59H62ZM29.9384 60.998L31.4269 61.1833C31.4187 61.2488 31.3887 61.3156 31.3284 61.3737C31.2627 61.437 31.1467 61.5 31 61.5V60V58.5C29.5782 58.5 28.5969 59.6312 28.4498 60.8128L29.9384 60.998Z" fill="#8E51FF" mask="url(#path-3-inside-2_40001087_57039)"/>
<rect x="28" y="21" width="21" height="2" fill="#8E51FF"/>
<rect x="46" y="53" width="9" height="2" fill="#8E51FF"/>
<rect x="22" y="30" width="33" height="2" fill="#8E51FF"/>
<rect x="22" y="35" width="33" height="2" fill="#8E51FF"/>
<rect x="22" y="40" width="33" height="2" fill="#8E51FF"/>
<rect x="22" y="45" width="33" height="2" fill="#8E51FF"/>
</svg>
