<svg width="24" height="24" viewBox="0 0 24 24" fill="none" xmlns="http://www.w3.org/2000/svg">
<g clip-path="url(#clip0_40001061_55394)">
<path d="M17.1988 7.48787C17.3878 7.67686 17.2539 8 16.9867 8H14.3C14.1343 8 14 7.86569 14 7.7V5.01333C14 4.74606 14.3231 4.61221 14.5121 4.80119L17.1988 7.48787ZM18 9V19C18 19.5523 17.5523 20 17 20H6C5.44772 20 5 19.5523 5 19V5C5 4.44772 5.44772 4 6 4H12C12.5523 4 13 4.44772 13 5V8C13 8.55228 13.4477 9 14 9H18Z" fill="#8E51FF"/>
</g>
<defs>
<clipPath id="clip0_40001061_55394">
<rect width="24" height="24" fill="white"/>
</clipPath>
</defs>
</svg>
