<svg width="24" height="24" viewBox="0 0 24 24" fill="none" xmlns="http://www.w3.org/2000/svg">
<path d="M19.9999 17.2837C19.9999 17.4428 19.9367 17.5954 19.8242 17.708C19.7117 17.8205 19.5591 17.8837 19.3999 17.8837H15.32C15.1863 18.382 14.892 18.8223 14.4827 19.1363C14.0734 19.4503 13.5719 19.6205 13.056 19.6205C12.5401 19.6205 12.0386 19.4503 11.6292 19.1363C11.2199 18.8223 10.9256 18.382 10.792 17.8837H4.6C4.44087 17.8837 4.28826 17.8205 4.17574 17.708C4.06321 17.5954 4 17.4428 4 17.2837C4 17.1246 4.06321 16.972 4.17574 16.8594C4.28826 16.7469 4.44087 16.6837 4.6 16.6837H10.792C10.9256 16.1854 11.2199 15.7451 11.6292 15.4311C12.0386 15.1171 12.5401 14.9469 13.056 14.9469C13.5719 14.9469 14.0734 15.1171 14.4827 15.4311C14.892 15.7451 15.1863 16.1854 15.32 16.6837H19.3999C19.5591 16.6837 19.7117 16.7469 19.8242 16.8594C19.9367 16.972 19.9999 17.1246 19.9999 17.2837ZM19.9999 6.71574C19.9999 6.87487 19.9367 7.02748 19.8242 7.14C19.7117 7.25253 19.5591 7.31574 19.3999 7.31574H17.44C17.3063 7.81404 17.012 8.25433 16.6027 8.56835C16.1934 8.88237 15.6919 9.05258 15.176 9.05258C14.6601 9.05258 14.1586 8.88237 13.7492 8.56835C13.3399 8.25433 13.0456 7.81404 12.912 7.31574H4.6C4.52121 7.31574 4.44318 7.30022 4.37039 7.27007C4.29759 7.23991 4.23145 7.19572 4.17574 7.14C4.12002 7.08429 4.07582 7.01815 4.04567 6.94535C4.01552 6.87256 4 6.79453 4 6.71574C4 6.63695 4.01552 6.55893 4.04567 6.48613C4.07582 6.41334 4.12002 6.34719 4.17574 6.29148C4.23145 6.23576 4.29759 6.19157 4.37039 6.16142C4.44318 6.13126 4.52121 6.11574 4.6 6.11574H12.912C13.0456 5.61744 13.3399 5.17715 13.7492 4.86313C14.1586 4.54911 14.6601 4.37891 15.176 4.37891C15.6919 4.37891 16.1934 4.54911 16.6027 4.86313C17.012 5.17715 17.3063 5.61744 17.44 6.11574H19.3999C19.479 6.11467 19.5575 6.12945 19.6308 6.15922C19.7041 6.18899 19.7707 6.23315 19.8266 6.28908C19.8825 6.34501 19.9267 6.41158 19.9565 6.48486C19.9862 6.55815 20.001 6.63665 19.9999 6.71574ZM19.9999 11.9957C20.001 12.0748 19.9862 12.1533 19.9565 12.2266C19.9267 12.2999 19.8825 12.3665 19.8266 12.4224C19.7707 12.4783 19.7041 12.5225 19.6308 12.5522C19.5575 12.582 19.479 12.5968 19.3999 12.5957H10.04C9.90635 13.094 9.61205 13.5343 9.20272 13.8483C8.79339 14.1624 8.29189 14.3326 7.77599 14.3326C7.26008 14.3326 6.75858 14.1624 6.34925 13.8483C5.93992 13.5343 5.64563 13.094 5.51199 12.5957H4.6C4.44087 12.5957 4.28826 12.5325 4.17574 12.42C4.06321 12.3075 4 12.1549 4 11.9957C4 11.8366 4.06321 11.684 4.17574 11.5715C4.28826 11.4589 4.44087 11.3957 4.6 11.3957H5.51199C5.64563 10.8974 5.93992 10.4571 6.34925 10.1431C6.75858 9.82909 7.26008 9.65889 7.77599 9.65889C8.29189 9.65889 8.79339 9.82909 9.20272 10.1431C9.61205 10.4571 9.90635 10.8974 10.04 11.3957H19.3999C19.5591 11.3957 19.7117 11.4589 19.8242 11.5715C19.9367 11.684 19.9999 11.8366 19.9999 11.9957Z" fill="#8E51FF"/>
</svg>
