<svg width="24" height="24" viewBox="0 0 24 24" fill="none" xmlns="http://www.w3.org/2000/svg">
<g clip-path="url(#clip0_40001061_50025)">
<path d="M17.8333 3H6.16667C5.85725 3 5.5605 3.11853 5.34171 3.3295C5.12292 3.54048 5 3.82663 5 4.125V19.875C5 20.1734 5.12292 20.4595 5.34171 20.6705C5.5605 20.8815 5.85725 21 6.16667 21H17.8333C18.1428 21 18.4395 20.8815 18.6583 20.6705C18.8771 20.4595 19 20.1734 19 19.875V4.125C19 3.82663 18.8771 3.54048 18.6583 3.3295C18.4395 3.11853 18.1428 3 17.8333 3ZM9.08333 16.5H7.91667V15.375H9.08333V16.5ZM9.08333 14.25H7.91667V13.125H9.08333V14.25ZM9.08333 12H7.91667V10.875H9.08333V12ZM9.08333 9.75H7.91667V8.625H9.08333V9.75ZM9.08333 7.5H7.91667V6.375H9.08333V7.5ZM16.0833 16.5H10.25V15.375H16.0833V16.5ZM16.0833 14.25H10.25V13.125H16.0833V14.25ZM16.0833 12H10.25V10.875H16.0833V12ZM16.0833 9.75H10.25V8.625H16.0833V9.75ZM16.0833 7.5H10.25V6.375H16.0833V7.5Z" fill="#8E51FF"/>
</g>
<defs>
<clipPath id="clip0_40001061_50025">
<rect width="24" height="24" fill="white"/>
</clipPath>
</defs>
</svg>
