<svg width="24" height="24" viewBox="0 0 24 24" fill="none" xmlns="http://www.w3.org/2000/svg">
<path d="M12 3.67188C13.9891 3.67188 15.8968 4.46205 17.3033 5.86857C18.7098 7.2751 19.5 9.18275 19.5 11.1719C19.5 13.7335 18.1033 15.8302 16.6317 17.3344C15.8964 18.0778 15.0941 18.7517 14.235 19.3477L13.88 19.5894L13.7133 19.7002L13.3992 19.9002L13.1192 20.071L12.7725 20.2727C12.5372 20.407 12.2709 20.4777 12 20.4777C11.7291 20.4777 11.4628 20.407 11.2275 20.2727L10.8808 20.071L10.4475 19.8044L10.2875 19.7002L9.94583 19.4727C9.01903 18.8456 8.15575 18.1295 7.36833 17.3344C5.89667 15.8294 4.5 13.7335 4.5 11.1719C4.5 9.18275 5.29018 7.2751 6.6967 5.86857C8.10322 4.46205 10.0109 3.67188 12 3.67188ZM12 8.67188C11.6717 8.67188 11.3466 8.73654 11.0433 8.86218C10.74 8.98781 10.4644 9.17196 10.2322 9.40411C10.0001 9.63625 9.81594 9.91185 9.6903 10.2152C9.56466 10.5185 9.5 10.8436 9.5 11.1719C9.5 11.5002 9.56466 11.8253 9.6903 12.1286C9.81594 12.4319 10.0001 12.7075 10.2322 12.9396C10.4644 13.1718 10.74 13.3559 11.0433 13.4816C11.3466 13.6072 11.6717 13.6719 12 13.6719C12.663 13.6719 13.2989 13.4085 13.7678 12.9396C14.2366 12.4708 14.5 11.8349 14.5 11.1719C14.5 10.5088 14.2366 9.87295 13.7678 9.40411C13.2989 8.93527 12.663 8.67188 12 8.67188Z" fill="#8E51FF"/>
</svg>
