<svg width="80" height="80" viewBox="0 0 80 80" fill="none" xmlns="http://www.w3.org/2000/svg">
<circle cx="41.7646" cy="40.0009" r="27.4853" fill="#8E51FF" stroke="#8E51FF" stroke-width="1.5"/>
<circle cx="38.2353" cy="40.0009" r="27.4853" fill="white" stroke="#8E51FF" stroke-width="1.5"/>
<circle cx="38.2356" cy="40.0002" r="21.3088" stroke="#8E51FF" stroke-width="1.5"/>
<rect x="38.2354" y="11.7656" width="3.52941" height="0.882353" fill="#8E51FF"/>
<rect x="38.2354" y="67.3535" width="3.52941" height="0.882353" fill="#8E51FF"/>
<path d="M38.9062 28.4229H47.2588V31.7842H33.7168C32.1886 31.7844 30.9495 33.0236 30.9492 34.5518C30.9494 36.08 32.1886 37.3181 33.7168 37.3184H41.7979V37.3203H41.8721C45.2562 37.3205 47.9995 40.0642 48 43.4482C48 46.8327 45.2565 49.5769 41.8721 49.5771H38.9062V52.3428H36.6826V49.5771H28.3301V46.2158H41.8721C43.4004 46.2156 44.6396 44.9766 44.6396 43.4482C44.6392 41.9203 43.4001 40.6819 41.8721 40.6816H33.4209V40.6719C30.1741 40.5173 27.5891 37.8368 27.5889 34.5518C27.5891 31.1675 30.3326 28.4231 33.7168 28.4229H36.6826V25.6562H38.9062V28.4229Z" fill="#8E51FF"/>
</svg>
