<svg width="80" height="80" viewBox="0 0 80 80" fill="none" xmlns="http://www.w3.org/2000/svg">
<path d="M39 9.73205C40.8564 8.66025 43.1436 8.66025 45 9.73205L66.7128 22.2679C68.5692 23.3397 69.7128 25.3205 69.7128 27.4641V52.5359C69.7128 54.6795 68.5692 56.6603 66.7128 57.7321L45 70.2679C43.1436 71.3397 40.8564 71.3397 39 70.2679L17.2872 57.7321C15.4308 56.6603 14.2872 54.6795 14.2872 52.5359V27.4641C14.2872 25.3205 15.4308 23.3397 17.2872 22.2679L39 9.73205Z" fill="#1E2939"/>
<path d="M35.375 10.3818C36.9994 9.44401 39.0006 9.44401 40.625 10.3818L62.3379 22.917C63.9622 23.8548 64.9628 25.5883 64.9629 27.4639V52.5361C64.9628 54.4117 63.9622 56.1452 62.3379 57.083L40.625 69.6182C39.0006 70.556 36.9994 70.556 35.375 69.6182L13.6621 57.083C12.0378 56.1452 11.0372 54.4117 11.0371 52.5361V27.4639C11.0372 25.5883 12.0378 23.8548 13.6621 22.917L35.375 10.3818Z" fill="white" stroke="#1E2939" stroke-width="1.5"/>
<rect x="38" y="8.92969" width="3.9873" height="0.996094" fill="#1E2939"/>
<rect x="38.0127" y="70.0742" width="3.9873" height="0.996094" fill="#1E2939"/>
<path d="M26 40L34.5 48L53 32" stroke="#1E2939" stroke-width="4"/>
</svg>
